<?xml version="1.0" encoding="utf-8"?>
<!-- Generator: Adobe Illustrator 24.0.1, SVG Export Plug-In . SVG Version: 6.00 Build 0)  -->
<svg version="1.1" id="Layer_1" xmlns="http://www.w3.org/2000/svg" xmlns:xlink="http://www.w3.org/1999/xlink" x="0px" y="0px"
	 viewBox="0 0 595.3 229.3" style="enable-background:new 0 0 595.3 229.3;" xml:space="preserve">
<style type="text/css">
	.st0{fill:#476380;}
	.st1{fill:none;}
	.st2{fill:#60969B;}
</style>
<g>
	<g>
		<g>
			<g>
				<polygon class="st0" points="138.2,19.9 103.7,39.8 69.2,19.9 103.7,0 				"/>
			</g>
		</g>
		<g>
			<g>
				<path class="st1" d="M65.9,59.3l-6.2,3.6"/>
				<polygon class="st2" points="100.4,45.6 100.4,66.1 83.7,75.8 81.8,76.8 81.8,53.9 78.9,52.3 75.4,50.2 65.9,44.8 65.9,25.7 
									"/>
			</g>
		</g>
		<g>
			<g>
				<polygon class="st2" points="141.5,25.7 141.5,65.5 123.8,75.8 107,66.1 107,45.6 				"/>
			</g>
		</g>
	</g>
	<g>
		<g>
			<g>
				<polygon class="st0" points="72.3,55.6 65.9,59.3 59.7,62.8 37.8,75.5 3.3,55.6 37.8,35.7 59.7,48.3 65.9,51.9 				"/>
				<path class="st1" d="M65.9,59.3l-6.2,3.6"/>
			</g>
		</g>
		<g>
			<g>
				<polygon class="st2" points="34.5,81.2 34.5,101.7 17.8,111.4 0,101.1 0,61.3 				"/>
			</g>
		</g>
		<g>
			<g>
				<polygon class="st2" points="75.6,61.3 75.6,80.4 66.1,85.9 62.6,87.9 59.7,89.6 59.7,112.5 57.8,111.4 41.1,101.8 41.1,81.2 
					61,69.8 61,69.8 67.2,66.2 				"/>
			</g>
		</g>
	</g>
	<g>
		<g>
			<g>
				<polygon class="st0" points="138.2,91.2 103.7,111.1 81.8,98.5 75.6,94.9 69.2,91.2 75.6,87.5 81.8,84 83.7,82.9 89.9,79.3 
					100.4,73.2 100.9,73 103.7,71.3 106.6,73 107,73.2 117.6,79.3 123.7,82.9 				"/>
			</g>
		</g>
		<g>
			<g>
				<polygon class="st2" points="100.4,116.9 100.4,137.4 83.7,147.1 81.8,148.2 81.8,125.2 78.9,123.6 75.4,121.5 65.9,116.1 
					65.9,97 74.4,101.9 80.5,105.4 				"/>
			</g>
		</g>
		<g>
			<g>
				<polygon class="st2" points="141.5,97 141.5,136.8 123.7,147 107,137.4 107,116.9 				"/>
			</g>
		</g>
	</g>
	<g>
		<g>
			<g>
				<polygon class="st0" points="72.3,126.9 65.9,130.6 59.7,134.1 37.8,146.8 3.3,126.9 17.8,118.5 23.9,115 34.5,108.9 35,108.6 
					37.8,107 40.7,108.6 41.1,108.9 51.7,115 57.8,118.5 59.7,119.6 65.9,123.2 				"/>
			</g>
		</g>
		<g>
			<g>
				<polygon class="st2" points="34.5,152.5 34.5,192.4 0,172.5 0,132.6 				"/>
			</g>
		</g>
		<g>
			<g>
				<polygon class="st2" points="75.6,132.6 75.6,151.7 66.1,157.2 62.6,159.2 59.7,160.9 59.7,181.6 41.1,192.4 41.1,152.5 
					61,141.1 67.2,137.5 				"/>
			</g>
		</g>
	</g>
	<g>
		<g>
			<g>
				<polygon class="st0" points="138.2,162.5 103.7,182.4 81.8,169.8 75.6,166.2 69.2,162.5 75.6,158.8 81.8,155.3 83.7,154.2 
					89.9,150.6 100.4,144.6 100.9,144.3 103.7,142.6 106.6,144.3 107,144.5 117.6,150.6 123.7,154.2 				"/>
			</g>
		</g>
		<g>
			<g>
				<polygon class="st2" points="100.4,188.2 100.4,228 65.9,208.1 65.9,168.3 74.4,173.2 80.5,176.7 				"/>
			</g>
		</g>
		<g>
			<g>
				<polygon class="st2" points="141.5,168.3 141.5,208.1 107,228 107,188.2 				"/>
			</g>
		</g>
	</g>
</g>
<g>
	<path class="st0" d="M173.5,104.3c-5.8-2.5-10.3-6-13.6-10.6c-3.3-4.6-5.1-10.1-5.2-16.4h22.1c0.3,4.2,1.8,7.6,4.5,10
		c2.7,2.5,6.4,3.7,11.1,3.7c4.8,0,8.6-1.2,11.4-3.5c2.8-2.3,4.1-5.3,4.1-9.1c0-3-0.9-5.6-2.8-7.5c-1.9-2-4.2-3.5-7-4.6
		c-2.8-1.1-6.7-2.4-11.6-3.8c-6.7-2-12.1-3.9-16.3-5.8c-4.2-1.9-7.8-4.8-10.8-8.7c-3-3.9-4.5-9.1-4.5-15.6c0-6.1,1.5-11.4,4.6-15.9
		c3-4.5,7.3-8,12.8-10.4c5.5-2.4,11.8-3.6,18.9-3.6c10.6,0,19.3,2.6,25.9,7.7c6.6,5.2,10.3,12.4,11,21.6h-22.7
		c-0.2-3.5-1.7-6.5-4.5-8.8c-2.8-2.3-6.5-3.5-11.1-3.5c-4,0-7.3,1-9.7,3.1c-2.4,2.1-3.6,5.1-3.6,9c0,2.8,0.9,5,2.7,6.9
		c1.8,1.8,4.1,3.3,6.8,4.4c2.7,1.1,6.5,2.4,11.4,3.9c6.7,2,12.1,3.9,16.4,5.9c4.2,2,7.9,4.9,10.9,8.9c3,3.9,4.6,9.1,4.6,15.5
		c0,5.5-1.4,10.6-4.3,15.3c-2.9,4.7-7,8.5-12.5,11.3c-5.5,2.8-12,4.2-19.6,4.2C185.8,108,179.3,106.7,173.5,104.3z"/>
	<path class="st0" d="M309.6,72.3h-59.8c0.5,5.9,2.6,10.5,6.2,13.9c3.6,3.3,8.1,5,13.4,5c7.7,0,13.1-3.3,16.4-9.9h22.3
		c-2.4,7.9-6.9,14.3-13.6,19.4c-6.7,5.1-14.9,7.6-24.6,7.6c-7.9,0-14.9-1.7-21.2-5.2c-6.2-3.5-11.1-8.4-14.6-14.8
		c-3.5-6.4-5.2-13.8-5.2-22.1c0-8.5,1.7-15.9,5.2-22.3c3.4-6.4,8.3-11.3,14.5-14.8c6.2-3.4,13.3-5.2,21.4-5.2c7.8,0,14.7,1.7,20.9,5
		c6.1,3.3,10.9,8.1,14.3,14.2c3.4,6.1,5.1,13.2,5.1,21.2C310.2,67.2,310,69.9,309.6,72.3z M288.8,58.4c-0.1-5.3-2-9.6-5.8-12.8
		c-3.7-3.2-8.3-4.8-13.7-4.8c-5.1,0-9.4,1.5-12.9,4.6c-3.5,3.1-5.6,7.4-6.4,12.9H288.8z"/>
	<path class="st0" d="M312.1,43.9c3.4-6.3,8.2-11.3,14.3-14.8c6.1-3.5,13.1-5.2,21-5.2c10.1,0,18.5,2.5,25.2,7.6
		c6.6,5.1,11.1,12.2,13.4,21.3h-22.3c-1.2-3.5-3.2-6.3-6-8.3c-2.8-2-6.3-3-10.4-3c-5.9,0-10.6,2.1-14,6.4
		c-3.4,4.3-5.2,10.4-5.2,18.2c0,7.8,1.7,13.8,5.2,18.1c3.4,4.3,8.1,6.4,14,6.4c8.4,0,13.8-3.7,16.4-11.2h22.3
		c-2.3,8.9-6.7,15.9-13.4,21.1c-6.7,5.2-15,7.8-25.1,7.8c-7.9,0-14.9-1.7-21-5.2c-6.1-3.5-10.9-8.4-14.3-14.8
		c-3.4-6.3-5.2-13.7-5.2-22.2C307,57.6,308.7,50.2,312.1,43.9z"/>
	<path class="st0" d="M465.3,25.2v81.7h-20.8V96.6c-2.7,3.5-6.1,6.3-10.4,8.3c-4.3,2-8.9,3-13.9,3c-6.4,0-12.1-1.4-17-4.1
		c-4.9-2.7-8.8-6.7-11.6-12c-2.8-5.3-4.2-11.5-4.2-18.8v-48H408v45c0,6.5,1.6,11.5,4.9,15c3.2,3.5,7.7,5.2,13.3,5.2
		c5.7,0,10.2-1.7,13.4-5.2c3.2-3.5,4.9-8.5,4.9-15v-45H465.3z"/>
	<path class="st0" d="M503.7,27.7c4.3-2.5,9.2-3.7,14.7-3.7v21.7H513c-6.5,0-11.4,1.5-14.7,4.6c-3.3,3-4.9,8.4-4.9,15.9v40.7h-20.7
		V25.2h20.7v12.7C496,33.6,499.4,30.2,503.7,27.7z"/>
	<path class="st0" d="M594.7,72.3h-59.8c0.5,5.9,2.6,10.5,6.2,13.9c3.6,3.3,8.1,5,13.4,5c7.7,0,13.1-3.3,16.4-9.9h22.3
		c-2.4,7.9-6.9,14.3-13.6,19.4c-6.7,5.1-14.9,7.6-24.6,7.6c-7.9,0-14.9-1.7-21.2-5.2c-6.2-3.5-11.1-8.4-14.6-14.8
		c-3.5-6.4-5.2-13.8-5.2-22.1c0-8.5,1.7-15.9,5.2-22.3c3.4-6.4,8.3-11.3,14.5-14.8c6.2-3.4,13.3-5.2,21.4-5.2c7.8,0,14.7,1.7,20.9,5
		c6.1,3.3,10.9,8.1,14.3,14.2c3.4,6.1,5.1,13.2,5.1,21.2C595.3,67.2,595.1,69.9,594.7,72.3z M573.9,58.4c-0.1-5.3-2-9.6-5.8-12.8
		c-3.7-3.2-8.3-4.8-13.7-4.8c-5.1,0-9.4,1.5-12.9,4.6c-3.5,3.1-5.6,7.4-6.4,12.9H573.9z"/>
	<path class="st0" d="M159.2,149.1c4.6-8,10.8-14.3,18.7-18.7c7.9-4.5,16.8-6.7,26.6-6.7c11.5,0,21.6,2.9,30.2,8.9
		c8.7,5.9,14.7,14.1,18.1,24.5h-23.8c-2.4-4.9-5.7-8.6-10-11.1c-4.3-2.5-9.2-3.7-14.8-3.7c-6,0-11.3,1.4-16,4.2
		c-4.7,2.8-8.3,6.8-10.9,11.9c-2.6,5.1-3.9,11.1-3.9,18c0,6.8,1.3,12.8,3.9,17.9c2.6,5.2,6.2,9.1,10.9,12c4.7,2.8,10,4.2,16,4.2
		c5.6,0,10.5-1.3,14.8-3.8c4.3-2.5,7.6-6.2,10-11.1H253c-3.4,10.5-9.5,18.7-18.1,24.6c-8.6,5.9-18.7,8.8-30.3,8.8
		c-9.8,0-18.7-2.2-26.6-6.7c-7.9-4.5-14.2-10.7-18.7-18.7c-4.6-8-6.9-17-6.9-27.1C152.4,166.2,154.7,157.2,159.2,149.1z"/>
	<path class="st0" d="M320.3,149.1c4.8,2.7,8.6,6.7,11.3,12c2.7,5.3,4.1,11.6,4.1,19v48H315v-45.1c0-6.5-1.6-11.5-4.9-15
		c-3.2-3.5-7.7-5.2-13.3-5.2c-5.7,0-10.2,1.7-13.5,5.2c-3.3,3.5-4.9,8.5-4.9,15V228h-20.7V118.8h20.7v37.6c2.7-3.5,6.2-6.3,10.6-8.3
		c4.4-2,9.3-3,14.8-3C309.9,145.1,315.5,146.4,320.3,149.1z"/>
	<path class="st0" d="M341.9,164.9c3.3-6.4,7.8-11.3,13.4-14.8c5.7-3.4,12-5.2,19-5.2c6.1,0,11.4,1.2,16,3.7c4.6,2.5,8.2,5.6,11,9.3
		v-11.7h20.8V228h-20.8v-12c-2.7,3.8-6.3,7-11,9.5c-4.7,2.5-10.1,3.8-16.2,3.8c-6.9,0-13.2-1.8-18.8-5.3c-5.7-3.5-10.1-8.5-13.4-15
		c-3.3-6.4-4.9-13.8-4.9-22.2C336.9,178.6,338.6,171.3,341.9,164.9z M398.3,174.2c-2-3.6-4.6-6.3-8-8.3c-3.3-1.9-6.9-2.9-10.8-2.9
		s-7.4,0.9-10.6,2.8c-3.2,1.9-5.9,4.6-7.9,8.2c-2,3.6-3,7.8-3,12.8c0,4.9,1,9.2,3,12.9c2,3.7,4.7,6.5,8,8.5c3.3,2,6.8,3,10.5,3
		c3.8,0,7.4-1,10.8-2.9c3.3-1.9,6-4.7,8-8.3c2-3.6,2.9-7.9,2.9-12.9C401.3,182.1,400.3,177.8,398.3,174.2z"/>
	<path class="st2" d="M430.7,133.1c-2.4-2.3-3.6-5.2-3.6-8.6c0-3.4,1.2-6.3,3.6-8.6c2.4-2.3,5.4-3.5,9.1-3.5c3.6,0,6.7,1.2,9.1,3.5
		c2.4,2.3,3.6,5.2,3.6,8.6c0,3.4-1.2,6.3-3.6,8.6c-2.4,2.3-5.4,3.5-9.1,3.5C436.1,136.5,433.1,135.4,430.7,133.1z"/>
	<rect x="429.3" y="146.3" class="st0" width="20.7" height="81.7"/>
	<path class="st0" d="M526.2,154.3c6,6.1,9,14.7,9,25.7v48h-20.7v-45.1c0-6.5-1.6-11.5-4.9-15c-3.2-3.5-7.7-5.2-13.3-5.2
		c-5.7,0-10.2,1.7-13.5,5.2c-3.3,3.5-4.9,8.5-4.9,15V228h-20.7v-81.7H478v10.2c2.8-3.5,6.3-6.3,10.5-8.3c4.3-2,9-3,14.1-3
		C512.4,145.1,520.2,148.2,526.2,154.3z"/>
</g>
</svg>
