<?xml version="1.0" encoding="utf-8"?>
<!-- Generator: Adobe Illustrator 24.0.1, SVG Export Plug-In . SVG Version: 6.00 Build 0)  -->
<svg version="1.1" id="Layer_1" xmlns="http://www.w3.org/2000/svg" xmlns:xlink="http://www.w3.org/1999/xlink" x="0px" y="0px"
	 viewBox="0 0 593.7 640.5" style="enable-background:new 0 0 593.7 640.5;" xml:space="preserve">
<style type="text/css">
	.st0{fill:#476380;}
	.st1{fill:#60969B;}
	.st2{fill:none;}
</style>
<g>
	<g>
		<g>
			<polygon class="st0" points="393.7,56.3 296.8,112.2 200,56.3 296.8,0.4 			"/>
		</g>
	</g>
	<g>
		<g>
			<path class="st1" d="M287.5,128.3v57.6L240.6,213l-11-6.4v-54.9c-13.7-7.9-8.1-4.7-38.9-22.5V72.5L287.5,128.3z"/>
		</g>
	</g>
	<g>
		<g>
			<path class="st1" d="M403,72.5v56.8c0,0-2.9,1.7-38.9,22.5v54.9l-11,6.4L306.2,186v-57.6L403,72.5z"/>
		</g>
	</g>
	<g>
		<g>
			<path class="st0" d="M584.4,156.4l-96.8,55.9c-22.9-13.2-52.3-30.2-96.9-55.9c21.9-12.6,51-29.4,96.9-55.9L584.4,156.4z"/>
		</g>
	</g>
	<g>
		<g>
			<path class="st1" d="M478.2,228.4V286l-46.9,27.1l-11-6.3v-54.9c-13.8-8-8.1-4.7-38.9-22.5v-56.8
				C392.6,179,441.5,207.3,478.2,228.4z"/>
		</g>
	</g>
	<g>
		<g>
			<polygon class="st1" points="593.7,172.6 593.7,284.3 543.8,313.1 496.9,286 496.9,228.4 			"/>
		</g>
	</g>
	<g>
		<g>
			<path class="st0" d="M203,156.4c-21.9,12.6-50.9,29.4-96.8,55.9L9.3,156.4l96.9-55.9C129.1,113.7,158.4,130.7,203,156.4z"/>
		</g>
	</g>
	<g>
		<g>
			<polygon class="st1" points="96.8,228.4 96.8,286.1 49.9,313.2 0,284.3 0,172.6 			"/>
		</g>
	</g>
	<g>
		<g>
			<path class="st1" d="M212.3,172.6v56.8c0,0-2.9,1.6-38.9,22.5v54.9l-11,6.4L115.5,286v-57.6C154.8,205.7,149.6,208.7,212.3,172.6
				z"/>
		</g>
	</g>
	<g>
		<g>
			<path class="st0" d="M393.7,256.5c-21.9,12.6-51,29.4-96.9,55.9c-22.9-13.2-52.2-30.2-96.8-55.9c19.3-11.2,55.7-32.2,96.8-56
				C331.1,220.3,316.3,211.8,393.7,256.5z"/>
		</g>
	</g>
	<g>
		<g>
			<path class="st1" d="M287.5,328.5v57.6l-46.9,27.1l-11-6.4v-54.9c-13.7-7.9-8.1-4.7-38.9-22.5v-56.8c2.4,1.4,0.1,0,38.2,22.1
				C228.5,294.4,284.7,326.9,287.5,328.5z"/>
		</g>
	</g>
	<g>
		<g>
			<path class="st1" d="M403,272.7v56.8c0,0-2.9,1.7-38.9,22.5v54.9l-11,6.4l-46.9-27.1v-57.6C345.5,305.8,340.4,308.8,403,272.7z"
				/>
		</g>
	</g>
	<g>
		<g>
			<path class="st0" d="M584.4,356.6l-96.8,55.9c-22.9-13.2-52.3-30.1-96.9-55.9c-3.7,2.1,33.6-19.4,96.9-56
				C509.7,313.4,516.9,317.6,584.4,356.6z"/>
		</g>
	</g>
	<g>
		<g>
			<path class="st1" d="M478.2,428.6v111.8L420.3,507v-54.9c-13.8-8-8.1-4.7-38.9-22.5v-56.8c2.4,1.4,0.2,0.1,38.2,22.1h0.1
				L478.2,428.6z"/>
		</g>
	</g>
	<g>
		<g>
			<polygon class="st1" points="593.7,372.7 593.7,484.5 496.9,540.4 496.9,428.6 			"/>
		</g>
	</g>
	<g>
		<g>
			<path class="st0" d="M203,356.6c-23.2,13.3-49.7,28.7-96.8,55.9L9.3,356.6c13.2-7.7,43.5-25.1,96.9-56
				C138.3,319.2,118.7,307.9,203,356.6z"/>
		</g>
	</g>
	<g>
		<g>
			<polygon class="st1" points="96.8,428.6 96.8,540.4 0,484.5 0,372.7 			"/>
		</g>
	</g>
	<g>
		<g>
			<path class="st1" d="M212.3,372.7v56.9c0,0-2.9,1.6-38.9,22.5V507l-57.9,33.4V428.6C154.8,405.9,149.6,408.9,212.3,372.7z"/>
		</g>
	</g>
	<g>
		<g>
			<path class="st0" d="M393.7,456.7c-21.9,12.6-51,29.4-96.9,55.9c-22.9-13.2-52.2-30.2-96.8-55.9c19.3-11.2,55.7-32.2,96.8-56
				C331.1,420.5,316.3,412.1,393.7,456.7z"/>
		</g>
	</g>
	<g>
		<g>
			<path class="st1" d="M287.5,528.7v111.8l-96.8-55.9V472.8C201.9,479.3,250.9,507.5,287.5,528.7z"/>
		</g>
	</g>
	<g>
		<g>
			<path class="st2" d="M420.3,507v-45.6"/>
			<path class="st1" d="M403,472.8v111.8l-96.8,55.9V528.7l58.5-33.8C367.6,493.4,365.6,494.4,403,472.8z"/>
		</g>
	</g>
</g>
</svg>
